<svg width="200" height="57" viewBox="0 0 200 57" fill="none" xmlns="http://www.w3.org/2000/svg">
<path d="M200 0H0V56.9444H200V0Z" fill="black"/>
<path d="M56.6667 2.77777H3.05556V53.0555H56.6667V2.77777Z" fill="white"/>
<path d="M46.3056 42.8167C46.5056 43.25 46.6056 43.6833 46.6056 44.1167C46.6056 44.8833 46.2889 45.5333 45.6556 46.0667C45.0556 46.6 44.3556 46.8667 43.5556 46.8667C43.0222 46.8667 42.5222 46.7333 42.0556 46.4667C41.5889 46.1667 41.2222 45.7167 40.9556 45.1167L37.9556 38.4167H20.3556L17.3556 45.1167C17.0889 45.7167 16.7222 46.1667 16.2556 46.4667C15.7889 46.7333 15.2722 46.8667 14.7056 46.8667C13.9389 46.8667 13.2389 46.6 12.6056 46.0667C11.9722 45.5333 11.6556 44.8833 11.6556 44.1167C11.6556 43.6833 11.7556 43.25 11.9556 42.8167L25.7556 13.1667C26.0556 12.5 26.5056 12 27.1056 11.6667C27.7389 11.3 28.4056 11.1167 29.1056 11.1167C29.8056 11.1167 30.4556 11.3 31.0556 11.6667C31.6889 12 32.1556 12.5 32.4556 13.1667L46.3056 42.8167ZM22.5556 33.4167H35.7556L29.1556 18.5667L22.5556 33.4167Z" fill="black"/>
<path d="M46.3056 42.8167L46.5578 42.7003L46.5572 42.6992L46.3056 42.8167ZM45.6556 46.0667L45.4767 45.8542L45.4739 45.8567L45.4711 45.8592L45.6556 46.0667ZM42.0556 46.4667L41.9053 46.7003L41.9114 46.7042L41.9178 46.7078L42.0556 46.4667ZM40.9556 45.1167L41.2094 45.0039L41.2092 45.0031L40.9556 45.1167ZM37.9556 38.4167L38.2092 38.3031L38.1356 38.1389H37.9556V38.4167ZM20.3556 38.4167V38.1389H20.1756L20.102 38.3031L20.3556 38.4167ZM17.3556 45.1167L17.102 45.0031L17.1017 45.0039L17.3556 45.1167ZM16.2556 46.4667L16.3934 46.7078L16.3997 46.7042L16.4058 46.7003L16.2556 46.4667ZM12.6056 46.0667L12.4266 46.2792L12.6056 46.0667ZM11.9556 42.8167L11.7037 42.6995L11.7033 42.7003L11.9556 42.8167ZM25.7556 13.1667L26.0074 13.2839L26.0089 13.2807L25.7556 13.1667ZM27.1056 11.6667L27.2404 11.9095L27.2426 11.9083L27.2447 11.9071L27.1056 11.6667ZM31.0556 11.6667L30.9108 11.9037L30.9183 11.9083L30.9261 11.9125L31.0556 11.6667ZM32.4556 13.1667L32.2022 13.2807L32.2031 13.2825L32.2039 13.2842L32.4556 13.1667ZM22.5556 33.4167L22.3017 33.3039L22.1281 33.6945H22.5556V33.4167ZM35.7556 33.4167V33.6945H36.1831L36.0094 33.3039L35.7556 33.4167ZM29.1556 18.5667L29.4094 18.4539L29.1556 17.8827L28.9017 18.4539L29.1556 18.5667ZM46.0533 42.9331C46.2383 43.3336 46.3278 43.7275 46.3278 44.1167H46.8833C46.8833 43.6392 46.7728 43.1664 46.5578 42.7003L46.0533 42.9331ZM46.3278 44.1167C46.3278 44.7942 46.0531 45.3689 45.4767 45.8542L45.8344 46.2792C46.5247 45.6978 46.8833 44.9725 46.8833 44.1167H46.3278ZM45.4711 45.8592C44.9217 46.3475 44.2872 46.5889 43.5556 46.5889V47.1445C44.4239 47.1445 45.1894 46.8525 45.84 46.2742L45.4711 45.8592ZM43.5556 46.5889C43.0708 46.5889 42.6183 46.4683 42.1933 46.2256L41.9178 46.7078C42.4261 46.9983 42.9736 47.1445 43.5556 47.1445V46.5889ZM42.2058 46.2331C41.7925 45.9672 41.4581 45.5636 41.2094 45.0039L40.7017 45.2295C40.9864 45.8697 41.3853 46.3661 41.9053 46.7003L42.2058 46.2331ZM41.2092 45.0031L38.2092 38.3031L37.7019 38.5303L40.7019 45.2303L41.2092 45.0031ZM37.9556 38.1389H20.3556V38.6945H37.9556V38.1389ZM20.102 38.3031L17.102 45.0031L17.6091 45.2303L20.6091 38.5303L20.102 38.3031ZM17.1017 45.0039C16.8529 45.5636 16.5186 45.9672 16.1053 46.2331L16.4058 46.7003C16.9259 46.3661 17.3248 45.8697 17.6094 45.2295L17.1017 45.0039ZM16.1177 46.2256C15.6954 46.467 15.2266 46.5889 14.7056 46.5889V47.1445C15.3178 47.1445 15.8824 46.9997 16.3934 46.7078L16.1177 46.2256ZM14.7056 46.5889C14.0098 46.5889 13.3721 46.3489 12.7845 45.8542L12.4266 46.2792C13.1057 46.8511 13.868 47.1445 14.7056 47.1445V46.5889ZM12.7845 45.8542C12.2081 45.3689 11.9333 44.7942 11.9333 44.1167H11.3778C11.3778 44.9725 11.7363 45.6978 12.4266 46.2792L12.7845 45.8542ZM11.9333 44.1167C11.9333 43.7275 12.0229 43.3336 12.2078 42.9331L11.7033 42.7003C11.4882 43.1664 11.3778 43.6392 11.3778 44.1167H11.9333ZM12.2074 42.9339L26.0074 13.2839L25.5037 13.0495L11.7037 42.6995L12.2074 42.9339ZM26.0089 13.2807C26.286 12.6648 26.6963 12.2118 27.2404 11.9095L26.9707 11.4238C26.3148 11.7882 25.8251 12.3352 25.5022 13.0527L26.0089 13.2807ZM27.2447 11.9071C27.8378 11.5637 28.4567 11.3945 29.1056 11.3945V10.8389C28.3544 10.8389 27.64 11.0363 26.9664 11.4263L27.2447 11.9071ZM29.1056 11.3945C29.7542 11.3945 30.3542 11.5636 30.9108 11.9037L31.2003 11.4296C30.5569 11.0365 29.8569 10.8389 29.1056 10.8389V11.3945ZM30.9261 11.9125C31.5033 12.2163 31.9272 12.6692 32.2022 13.2807L32.7089 13.0527C32.3839 12.3308 31.8744 11.7837 31.185 11.4209L30.9261 11.9125ZM32.2039 13.2842L46.0539 42.9342L46.5572 42.6992L32.7072 13.0491L32.2039 13.2842ZM22.5556 33.6945H35.7556V33.1389H22.5556V33.6945ZM36.0094 33.3039L29.4094 18.4539L28.9017 18.6795L35.5017 33.5295L36.0094 33.3039ZM28.9017 18.4539L22.3017 33.3039L22.8094 33.5295L29.4094 18.6795L28.9017 18.4539Z" fill="black"/>
<path d="M80.4233 31.2597C80.4733 31.3681 80.4983 31.4764 80.4983 31.5847C80.4983 31.7764 80.4192 31.9389 80.2608 32.0722C80.1108 32.2056 79.9358 32.2722 79.7358 32.2722C79.6025 32.2722 79.4775 32.2389 79.3608 32.1722C79.2442 32.0972 79.1525 31.9847 79.0858 31.8347L78.3358 30.1597H73.9358L73.1858 31.8347C73.1192 31.9847 73.0275 32.0972 72.9108 32.1722C72.7942 32.2389 72.665 32.2722 72.5233 32.2722C72.3317 32.2722 72.1567 32.2056 71.9983 32.0722C71.84 31.9389 71.7608 31.7764 71.7608 31.5847C71.7608 31.4764 71.7858 31.3681 71.8358 31.2597L75.2858 23.8472C75.3608 23.6806 75.4733 23.5556 75.6233 23.4722C75.7817 23.3806 75.9483 23.3347 76.1233 23.3347C76.2983 23.3347 76.4608 23.3806 76.6108 23.4722C76.7692 23.5556 76.8858 23.6806 76.9608 23.8472L80.4233 31.2597ZM74.4858 28.9097H77.7858L76.1358 25.1972L74.4858 28.9097ZM83.0133 32.2972C82.7717 32.2972 82.5758 32.2222 82.4258 32.0722C82.2842 31.9222 82.2133 31.7264 82.2133 31.4847V24.1472C82.2133 23.9056 82.2842 23.7139 82.4258 23.5722C82.5758 23.4222 82.7717 23.3472 83.0133 23.3472C83.2633 23.3472 83.4592 23.4222 83.6008 23.5722C83.7508 23.7139 83.8258 23.9056 83.8258 24.1472V31.4847C83.8258 31.7264 83.7508 31.9222 83.6008 32.0722C83.4592 32.2222 83.2633 32.2972 83.0133 32.2972ZM93.2789 31.2097C93.3789 31.3597 93.4289 31.5056 93.4289 31.6472C93.4289 31.8389 93.3497 31.9972 93.1914 32.1222C93.0414 32.2472 92.8622 32.3097 92.6539 32.3097C92.5205 32.3097 92.3914 32.2806 92.2664 32.2222C92.1497 32.1556 92.0497 32.0597 91.9664 31.9347L90.3039 29.4097C90.1372 29.1431 89.9581 28.9556 89.7664 28.8472C89.5831 28.7389 89.3414 28.6847 89.0414 28.6847H87.8164V31.4847C87.8164 31.7347 87.7456 31.9347 87.6039 32.0847C87.4622 32.2264 87.2705 32.2972 87.0289 32.2972C86.7872 32.2972 86.5914 32.2264 86.4414 32.0847C86.2997 31.9347 86.2289 31.7347 86.2289 31.4847V24.1722C86.2289 23.9306 86.2956 23.7431 86.4289 23.6097C86.5706 23.4764 86.7622 23.4097 87.0039 23.4097H90.1289C91.1289 23.4097 91.8872 23.6347 92.4039 24.0847C92.9289 24.5264 93.1914 25.1681 93.1914 26.0097C93.1914 26.6931 92.9956 27.2556 92.6039 27.6972C92.2206 28.1306 91.6747 28.4097 90.9664 28.5347C91.2081 28.5931 91.4205 28.6972 91.6039 28.8472C91.7872 28.9972 91.9664 29.2056 92.1414 29.4722L93.2789 31.2097ZM89.9039 27.4472C90.5122 27.4472 90.9581 27.3347 91.2414 27.1097C91.5247 26.8764 91.6664 26.5222 91.6664 26.0472C91.6664 25.5639 91.5247 25.2139 91.2414 24.9972C90.9581 24.7722 90.5122 24.6597 89.9039 24.6597H87.8039V27.4472H89.9039ZM98.4336 32.3347C97.7919 32.3347 97.1836 32.2514 96.6086 32.0847C96.0419 31.9097 95.5794 31.6764 95.2211 31.3847C95.0294 31.2431 94.9336 31.0431 94.9336 30.7847C94.9336 30.6097 94.9836 30.4597 95.0836 30.3347C95.1919 30.2014 95.3169 30.1347 95.4586 30.1347C95.6086 30.1347 95.7794 30.1931 95.9711 30.3097C96.3294 30.5681 96.7044 30.7556 97.0961 30.8722C97.4878 30.9889 97.9211 31.0472 98.3961 31.0472C99.0044 31.0472 99.4711 30.9431 99.7961 30.7347C100.121 30.5181 100.284 30.2056 100.284 29.7972C100.284 29.4806 100.129 29.2389 99.8211 29.0722C99.5211 28.8972 99.0169 28.7306 98.3086 28.5722C97.5753 28.4139 96.9794 28.2306 96.5211 28.0222C96.0628 27.8139 95.7169 27.5472 95.4836 27.2222C95.2503 26.8972 95.1336 26.4847 95.1336 25.9847C95.1336 25.4681 95.2794 25.0056 95.5711 24.5972C95.8628 24.1889 96.2669 23.8722 96.7836 23.6472C97.3086 23.4139 97.8961 23.2972 98.5461 23.2972C99.7378 23.2972 100.709 23.6139 101.459 24.2472C101.567 24.3389 101.642 24.4306 101.684 24.5222C101.734 24.6056 101.759 24.7139 101.759 24.8472C101.759 25.0222 101.704 25.1764 101.596 25.3097C101.496 25.4347 101.375 25.4972 101.234 25.4972C101.15 25.4972 101.071 25.4847 100.996 25.4597C100.929 25.4347 100.838 25.3889 100.721 25.3222C100.379 25.0722 100.046 24.8889 99.7211 24.7722C99.4044 24.6472 99.0128 24.5847 98.5461 24.5847C97.9794 24.5847 97.5294 24.7014 97.1961 24.9347C96.8711 25.1597 96.7086 25.4764 96.7086 25.8847C96.7086 26.2264 96.8544 26.4889 97.1461 26.6722C97.4378 26.8556 97.9336 27.0264 98.6336 27.1847C99.3753 27.3514 99.9753 27.5389 100.434 27.7472C100.9 27.9472 101.254 28.2056 101.496 28.5222C101.746 28.8389 101.871 29.2347 101.871 29.7097C101.871 30.2264 101.725 30.6847 101.434 31.0847C101.15 31.4764 100.746 31.7847 100.221 32.0097C99.7044 32.2264 99.1086 32.3347 98.4336 32.3347ZM107.78 32.3347C106.922 32.3347 106.176 32.1514 105.542 31.7847C104.917 31.4181 104.434 30.8931 104.092 30.2097C103.751 29.5264 103.58 28.7264 103.58 27.8097C103.58 26.8931 103.747 26.0972 104.08 25.4222C104.422 24.7389 104.909 24.2139 105.542 23.8472C106.176 23.4806 106.922 23.2972 107.78 23.2972C108.638 23.2972 109.38 23.4806 110.005 23.8472C110.638 24.2139 111.122 24.7389 111.455 25.4222C111.797 26.0972 111.967 26.8931 111.967 27.8097C111.967 28.7264 111.797 29.5264 111.455 30.2097C111.113 30.8931 110.626 31.4181 109.992 31.7847C109.367 32.1514 108.63 32.3347 107.78 32.3347ZM107.78 31.0472C108.588 31.0472 109.218 30.7681 109.668 30.2097C110.126 29.6514 110.355 28.8514 110.355 27.8097C110.355 26.7681 110.126 25.9722 109.668 25.4222C109.218 24.8639 108.588 24.5847 107.78 24.5847C106.963 24.5847 106.326 24.8639 105.867 25.4222C105.417 25.9722 105.192 26.7681 105.192 27.8097C105.192 28.8514 105.417 29.6514 105.867 30.2097C106.326 30.7681 106.963 31.0472 107.78 31.0472ZM114.896 32.2972C114.654 32.2972 114.459 32.2222 114.309 32.0722C114.167 31.9222 114.096 31.7264 114.096 31.4847V24.1722C114.096 23.9306 114.163 23.7431 114.296 23.6097C114.438 23.4764 114.629 23.4097 114.871 23.4097H119.259C119.767 23.4097 120.021 23.6264 120.021 24.0597C120.021 24.4847 119.767 24.6972 119.259 24.6972H115.684V27.0972H119.009C119.517 27.0972 119.771 27.3139 119.771 27.7472C119.771 28.1722 119.517 28.3847 119.009 28.3847H115.684V31.4847C115.684 31.7264 115.613 31.9222 115.471 32.0722C115.329 32.2222 115.138 32.2972 114.896 32.2972ZM124.71 32.2847C124.46 32.2847 124.26 32.2139 124.11 32.0722C123.969 31.9222 123.898 31.7264 123.898 31.4847V24.7347H121.623C121.123 24.7347 120.873 24.5139 120.873 24.0722C120.873 23.6306 121.123 23.4097 121.623 23.4097H127.785C128.285 23.4097 128.535 23.6306 128.535 24.0722C128.535 24.5139 128.285 24.7347 127.785 24.7347H125.51V31.4847C125.51 31.7264 125.435 31.9222 125.285 32.0722C125.144 32.2139 124.952 32.2847 124.71 32.2847ZM133.401 32.3347C132.551 32.3347 131.806 32.1514 131.164 31.7847C130.531 31.4181 130.043 30.8931 129.701 30.2097C129.36 29.5264 129.189 28.7264 129.189 27.8097C129.189 26.8931 129.36 26.0972 129.701 25.4222C130.043 24.7389 130.531 24.2139 131.164 23.8472C131.806 23.4806 132.551 23.2972 133.401 23.2972C133.951 23.2972 134.468 23.3806 134.951 23.5472C135.435 23.7056 135.864 23.9389 136.239 24.2472C136.347 24.3306 136.422 24.4181 136.464 24.5097C136.506 24.6014 136.526 24.7139 136.526 24.8472C136.526 25.0306 136.476 25.1847 136.376 25.3097C136.276 25.4347 136.156 25.4972 136.014 25.4972C135.847 25.4972 135.676 25.4389 135.501 25.3222C135.143 25.0556 134.81 24.8722 134.501 24.7722C134.193 24.6639 133.851 24.6097 133.476 24.6097C132.61 24.6097 131.951 24.8806 131.501 25.4222C131.06 25.9639 130.839 26.7597 130.839 27.8097C130.839 28.8681 131.06 29.6681 131.501 30.2097C131.951 30.7514 132.61 31.0222 133.476 31.0222C133.835 31.0222 134.164 30.9681 134.464 30.8597C134.772 30.7514 135.118 30.5681 135.501 30.3097C135.585 30.2597 135.668 30.2181 135.751 30.1847C135.835 30.1514 135.922 30.1347 136.014 30.1347C136.156 30.1347 136.276 30.1972 136.376 30.3222C136.476 30.4472 136.526 30.6014 136.526 30.7847C136.526 30.9097 136.506 31.0222 136.464 31.1222C136.422 31.2139 136.347 31.3014 136.239 31.3847C135.864 31.6931 135.435 31.9306 134.951 32.0972C134.468 32.2556 133.951 32.3347 133.401 32.3347ZM139.211 32.2222C138.969 32.2222 138.777 32.1556 138.636 32.0222C138.502 31.8889 138.436 31.7014 138.436 31.4597V24.1722C138.436 23.9306 138.502 23.7431 138.636 23.6097C138.777 23.4764 138.969 23.4097 139.211 23.4097H143.723C143.965 23.4097 144.152 23.4639 144.286 23.5722C144.419 23.6806 144.486 23.8347 144.486 24.0347C144.486 24.2431 144.419 24.4056 144.286 24.5222C144.152 24.6306 143.965 24.6847 143.723 24.6847H140.011V27.1097H143.473C143.715 27.1097 143.902 27.1639 144.036 27.2722C144.169 27.3806 144.236 27.5389 144.236 27.7472C144.236 27.9472 144.169 28.1014 144.036 28.2097C143.902 28.3181 143.715 28.3722 143.473 28.3722H140.011V30.9472H143.723C143.965 30.9472 144.152 31.0056 144.286 31.1222C144.419 31.2306 144.486 31.3889 144.486 31.5972C144.486 31.7972 144.419 31.9514 144.286 32.0597C144.152 32.1681 143.965 32.2222 143.723 32.2222H139.211ZM152.971 23.3472C153.205 23.3472 153.388 23.4222 153.521 23.5722C153.663 23.7139 153.734 23.9056 153.734 24.1472V31.4847C153.734 31.7264 153.663 31.9222 153.521 32.0722C153.38 32.2222 153.196 32.2972 152.971 32.2972C152.705 32.2972 152.501 32.2014 152.359 32.0097L147.796 26.0722V31.4847C147.796 31.7264 147.73 31.9222 147.596 32.0722C147.463 32.2222 147.28 32.2972 147.046 32.2972C146.813 32.2972 146.63 32.2222 146.496 32.0722C146.363 31.9222 146.296 31.7264 146.296 31.4847V24.1472C146.296 23.9056 146.367 23.7139 146.509 23.5722C146.651 23.4222 146.838 23.3472 147.071 23.3472C147.33 23.3472 147.53 23.4431 147.671 23.6347L152.221 29.5472V24.1472C152.221 23.9056 152.288 23.7139 152.421 23.5722C152.563 23.4222 152.746 23.3472 152.971 23.3472ZM159.022 32.2847C158.772 32.2847 158.572 32.2139 158.422 32.0722C158.281 31.9222 158.21 31.7264 158.21 31.4847V24.7347H155.935C155.435 24.7347 155.185 24.5139 155.185 24.0722C155.185 23.6306 155.435 23.4097 155.935 23.4097H162.097C162.597 23.4097 162.847 23.6306 162.847 24.0722C162.847 24.5139 162.597 24.7347 162.097 24.7347H159.822V31.4847C159.822 31.7264 159.747 31.9222 159.597 32.0722C159.456 32.2139 159.264 32.2847 159.022 32.2847ZM171.351 31.2097C171.451 31.3597 171.501 31.5056 171.501 31.6472C171.501 31.8389 171.422 31.9972 171.263 32.1222C171.113 32.2472 170.934 32.3097 170.726 32.3097C170.592 32.3097 170.463 32.2806 170.338 32.2222C170.222 32.1556 170.122 32.0597 170.038 31.9347L168.376 29.4097C168.209 29.1431 168.03 28.9556 167.838 28.8472C167.655 28.7389 167.413 28.6847 167.113 28.6847H165.888V31.4847C165.888 31.7347 165.817 31.9347 165.676 32.0847C165.534 32.2264 165.342 32.2972 165.101 32.2972C164.859 32.2972 164.663 32.2264 164.513 32.0847C164.372 31.9347 164.301 31.7347 164.301 31.4847V24.1722C164.301 23.9306 164.368 23.7431 164.501 23.6097C164.643 23.4764 164.834 23.4097 165.076 23.4097H168.201C169.201 23.4097 169.959 23.6347 170.476 24.0847C171.001 24.5264 171.263 25.1681 171.263 26.0097C171.263 26.6931 171.067 27.2556 170.676 27.6972C170.292 28.1306 169.747 28.4097 169.038 28.5347C169.28 28.5931 169.493 28.6972 169.676 28.8472C169.859 28.9972 170.038 29.2056 170.213 29.4722L171.351 31.2097ZM167.976 27.4472C168.584 27.4472 169.03 27.3347 169.313 27.1097C169.597 26.8764 169.738 26.5222 169.738 26.0472C169.738 25.5639 169.597 25.2139 169.313 24.9972C169.03 24.7722 168.584 24.6597 167.976 24.6597H165.876V27.4472H167.976ZM174.267 32.2222C174.026 32.2222 173.834 32.1556 173.692 32.0222C173.559 31.8889 173.492 31.7014 173.492 31.4597V24.1722C173.492 23.9306 173.559 23.7431 173.692 23.6097C173.834 23.4764 174.026 23.4097 174.267 23.4097H178.78C179.021 23.4097 179.209 23.4639 179.342 23.5722C179.476 23.6806 179.542 23.8347 179.542 24.0347C179.542 24.2431 179.476 24.4056 179.342 24.5222C179.209 24.6306 179.021 24.6847 178.78 24.6847H175.067V27.1097H178.53C178.771 27.1097 178.959 27.1639 179.092 27.2722C179.226 27.3806 179.292 27.5389 179.292 27.7472C179.292 27.9472 179.226 28.1014 179.092 28.2097C178.959 28.3181 178.771 28.3722 178.53 28.3722H175.067V30.9472H178.78C179.021 30.9472 179.209 31.0056 179.342 31.1222C179.476 31.2306 179.542 31.3889 179.542 31.5972C179.542 31.7972 179.476 31.9514 179.342 32.0597C179.209 32.1681 179.021 32.2222 178.78 32.2222H174.267Z" fill="#EFEFEF"/>
</svg>
