<svg width="157" height="45" viewBox="0 0 157 45" fill="none" xmlns="http://www.w3.org/2000/svg">
<path d="M157 0H0V44.7014H157V0Z" fill="black"/>
<path d="M44.4833 2.18054H2.39861V41.6486H44.4833V2.18054Z" fill="white"/>
<path d="M36.3499 33.6111C36.5069 33.9513 36.5854 34.2914 36.5854 34.6316C36.5854 35.2334 36.3368 35.7437 35.8396 36.1623C35.3686 36.581 34.8191 36.7903 34.1911 36.7903C33.7724 36.7903 33.3799 36.6857 33.0136 36.4763C32.6473 36.2408 32.3594 35.8876 32.1501 35.4166L29.7951 30.1571H15.9791L13.6241 35.4166C13.4148 35.8876 13.1269 36.2408 12.7606 36.4763C12.3943 36.6857 11.9887 36.7903 11.5439 36.7903C10.942 36.7903 10.3925 36.581 9.89536 36.1623C9.39819 35.7437 9.14961 35.2334 9.14961 34.6316C9.14961 34.2914 9.22811 33.9513 9.38511 33.6111L20.2181 10.3358C20.4536 9.81251 20.8069 9.42001 21.2779 9.15834C21.775 8.87051 22.2984 8.72659 22.8479 8.72659C23.3974 8.72659 23.9076 8.87051 24.3786 9.15834C24.8758 9.42001 25.2421 9.81251 25.4776 10.3358L36.3499 33.6111ZM17.7061 26.2321H28.0681L22.8871 14.5748L17.7061 26.2321Z" fill="black"/>
<path d="M36.3499 33.6111L36.5479 33.5197L36.5474 33.5189L36.3499 33.6111ZM35.8396 36.1623L35.6992 35.9955L35.697 35.9975L35.6948 35.9995L35.8396 36.1623ZM33.0136 36.4763L32.8956 36.6597L32.9004 36.6628L32.9055 36.6656L33.0136 36.4763ZM32.1501 35.4166L32.3494 35.3281L32.3492 35.3274L32.1501 35.4166ZM29.7951 30.1571L29.9942 30.0679L29.9364 29.939H29.7951V30.1571ZM15.9791 30.1571V29.939H15.8378L15.7801 30.0679L15.9791 30.1571ZM13.6241 35.4166L13.4251 35.3274L13.4249 35.3281L13.6241 35.4166ZM12.7606 36.4763L12.8688 36.6656L12.8737 36.6628L12.8785 36.6597L12.7606 36.4763ZM9.89536 36.1623L9.75491 36.3292L9.89536 36.1623ZM9.38511 33.6111L9.18742 33.5191L9.18712 33.5197L9.38511 33.6111ZM20.2181 10.3359L20.4158 10.4279L20.417 10.4253L20.2181 10.3359ZM21.2779 9.15835L21.3837 9.34895L21.3855 9.34804L21.3871 9.34706L21.2779 9.15835ZM24.3786 9.15835L24.265 9.34442L24.2709 9.34806L24.277 9.35131L24.3786 9.15835ZM25.4776 10.3359L25.2787 10.4253L25.2794 10.4267L25.2801 10.4281L25.4776 10.3359ZM17.7061 26.2321L17.5069 26.1436L17.3706 26.4502H17.7061V26.2321ZM28.0681 26.2321V26.4502H28.4037L28.2674 26.1436L28.0681 26.2321ZM22.8871 14.5748L23.0864 14.4863L22.8871 14.038L22.6878 14.4863L22.8871 14.5748ZM36.1519 33.7025C36.2971 34.0169 36.3673 34.3261 36.3673 34.6316H36.8034C36.8034 34.2568 36.7166 33.8856 36.5479 33.5197L36.1519 33.7025ZM36.3673 34.6316C36.3673 35.1634 36.1516 35.6146 35.6992 35.9955L35.98 36.3292C36.5219 35.8728 36.8034 35.3034 36.8034 34.6316H36.3673ZM35.6948 35.9995C35.2635 36.3828 34.7655 36.5723 34.1911 36.5723V37.0084C34.8728 37.0084 35.4737 36.7792 35.9844 36.3252L35.6948 35.9995ZM34.1911 36.5723C33.8106 36.5723 33.4554 36.4777 33.1218 36.2871L32.9055 36.6656C33.3045 36.8937 33.7343 37.0084 34.1911 37.0084V36.5723ZM33.1316 36.293C32.8071 36.0843 32.5446 35.7675 32.3494 35.3281L31.9508 35.5051C32.1743 36.0077 32.4874 36.3974 32.8956 36.6597L33.1316 36.293ZM32.3492 35.3274L29.9942 30.0679L29.596 30.2463L31.951 35.5058L32.3492 35.3274ZM29.7951 29.939H15.9791V30.3752H29.7951V29.939ZM15.7801 30.0679L13.4251 35.3274L13.8231 35.5058L16.1781 30.2463L15.7801 30.0679ZM13.4249 35.3281C13.2296 35.7675 12.9671 36.0843 12.6427 36.293L12.8785 36.6597C13.2868 36.3974 13.6 36.0077 13.8234 35.5051L13.4249 35.3281ZM12.6524 36.2871C12.3209 36.4766 11.9529 36.5723 11.5439 36.5723V37.0084C12.0245 37.0084 12.4677 36.8948 12.8688 36.6656L12.6524 36.2871ZM11.5439 36.5723C10.9977 36.5723 10.4971 36.3839 10.0358 35.9955L9.75491 36.3292C10.288 36.7781 10.8864 37.0084 11.5439 37.0084V36.5723ZM10.0358 35.9955C9.58339 35.6146 9.36767 35.1634 9.36767 34.6316H8.93156C8.93156 35.3034 9.213 35.8728 9.75491 36.3292L10.0358 35.9955ZM9.36767 34.6316C9.36767 34.3261 9.43797 34.0169 9.58311 33.7025L9.18712 33.5197C9.01826 33.8856 8.93156 34.2568 8.93156 34.6316H9.36767ZM9.5828 33.7031L20.4158 10.4279L20.0204 10.2438L9.18742 33.5191L9.5828 33.7031ZM20.417 10.4253C20.6345 9.94187 20.9566 9.58628 21.3837 9.34895L21.172 8.96773C20.6571 9.25375 20.2727 9.68317 20.0193 10.2464L20.417 10.4253ZM21.3871 9.34706C21.8527 9.07754 22.3385 8.94466 22.8479 8.94466V8.50854C22.2582 8.50854 21.6974 8.6635 21.1686 8.96965L21.3871 9.34706ZM22.8479 8.94466C23.357 8.94466 23.828 9.07741 24.265 9.34442L24.4922 8.97228C23.9872 8.66363 23.4377 8.50854 22.8479 8.50854V8.94466ZM24.277 9.35131C24.7301 9.58979 25.0629 9.94536 25.2787 10.4253L25.6765 10.2464C25.4214 9.67968 25.0214 9.25024 24.4802 8.96539L24.277 9.35131ZM25.2801 10.4281L36.1523 33.7033L36.5474 33.5189L25.6752 10.2436L25.2801 10.4281ZM17.7061 26.4502H28.0681V26.014H17.7061V26.4502ZM28.2674 26.1436L23.0864 14.4863L22.6878 14.6634L27.8688 26.3206L28.2674 26.1436ZM22.6878 14.4863L17.5069 26.1436L17.9054 26.3206L23.0864 14.6634L22.6878 14.4863Z" fill="black"/>
<path d="M63.1323 24.5389C63.1716 24.6239 63.1912 24.709 63.1912 24.794C63.1912 24.9445 63.129 25.072 63.0047 25.1767C62.887 25.2814 62.7496 25.3337 62.5926 25.3337C62.488 25.3337 62.3898 25.3075 62.2982 25.2552C62.2067 25.1963 62.1347 25.108 62.0824 24.9903L61.4936 23.6754H58.0396L57.4509 24.9903C57.3985 25.108 57.3266 25.1963 57.235 25.2552C57.1434 25.3075 57.042 25.3337 56.9308 25.3337C56.7804 25.3337 56.643 25.2814 56.5187 25.1767C56.3944 25.072 56.3322 24.9445 56.3322 24.794C56.3322 24.709 56.3519 24.6239 56.3911 24.5389L59.0994 18.7201C59.1582 18.5892 59.2466 18.4911 59.3643 18.4257C59.4886 18.3537 59.6194 18.3178 59.7568 18.3178C59.8942 18.3178 60.0218 18.3537 60.1395 18.4257C60.2638 18.4911 60.3554 18.5892 60.4142 18.7201L63.1323 24.5389ZM58.4714 22.6941H61.0619L59.7666 19.7798L58.4714 22.6941ZM65.1655 25.3533C64.9758 25.3533 64.822 25.2945 64.7043 25.1767C64.5931 25.059 64.5375 24.9052 64.5375 24.7155V18.9556C64.5375 18.7659 64.5931 18.6154 64.7043 18.5042C64.822 18.3865 64.9758 18.3276 65.1655 18.3276C65.3617 18.3276 65.5154 18.3865 65.6267 18.5042C65.7444 18.6154 65.8033 18.7659 65.8033 18.9556V24.7155C65.8033 24.9052 65.7444 25.059 65.6267 25.1767C65.5154 25.2945 65.3617 25.3533 65.1655 25.3533ZM73.2239 24.4996C73.3024 24.6174 73.3417 24.7319 73.3417 24.8431C73.3417 24.9935 73.2795 25.1178 73.1552 25.216C73.0375 25.3141 72.8968 25.3631 72.7333 25.3631C72.6286 25.3631 72.5272 25.3402 72.4291 25.2945C72.3375 25.2421 72.259 25.1669 72.1936 25.0688L70.8885 23.0866C70.7577 22.8773 70.6171 22.7301 70.4666 22.6451C70.3227 22.56 70.133 22.5175 69.8975 22.5175H68.9359V24.7155C68.9359 24.9118 68.8803 25.0688 68.769 25.1865C68.6578 25.2977 68.5074 25.3533 68.3177 25.3533C68.128 25.3533 67.9742 25.2977 67.8565 25.1865C67.7453 25.0688 67.6897 24.9118 67.6897 24.7155V18.9752C67.6897 18.7855 67.742 18.6383 67.8467 18.5336C67.9579 18.429 68.1083 18.3766 68.298 18.3766H70.7512C71.5362 18.3766 72.1315 18.5533 72.537 18.9065C72.9492 19.2532 73.1552 19.7569 73.1552 20.4176C73.1552 20.9541 73.0015 21.3956 72.694 21.7423C72.3931 22.0825 71.9647 22.3016 71.4086 22.3998C71.5983 22.4456 71.7651 22.5273 71.909 22.6451C72.053 22.7628 72.1936 22.9264 72.331 23.1357L73.2239 24.4996ZM70.5745 21.5461C71.0521 21.5461 71.4021 21.4578 71.6245 21.2811C71.8469 21.098 71.9581 20.82 71.9581 20.4471C71.9581 20.0677 71.8469 19.7929 71.6245 19.6228C71.4021 19.4462 71.0521 19.3579 70.5745 19.3579H68.926V21.5461H70.5745ZM77.2704 25.3828C76.7667 25.3828 76.2891 25.3173 75.8378 25.1865C75.3929 25.0491 75.0299 24.866 74.7486 24.637C74.5981 24.5258 74.5229 24.3688 74.5229 24.166C74.5229 24.0286 74.5621 23.9109 74.6406 23.8128C74.7257 23.7081 74.8238 23.6558 74.935 23.6558C75.0528 23.6558 75.1869 23.7016 75.3373 23.7931C75.6186 23.9959 75.913 24.1431 76.2204 24.2347C76.5279 24.3263 76.8681 24.3721 77.2409 24.3721C77.7185 24.3721 78.0848 24.2903 78.3399 24.1268C78.5951 23.9567 78.7226 23.7114 78.7226 23.3908C78.7226 23.1422 78.6016 22.9525 78.3596 22.8217C78.1241 22.6843 77.7283 22.5535 77.1723 22.4292C76.5966 22.3049 76.1289 22.161 75.7691 21.9975C75.4093 21.8339 75.1378 21.6246 74.9546 21.3695C74.7715 21.1143 74.6799 20.7905 74.6799 20.398C74.6799 19.9924 74.7944 19.6294 75.0233 19.3088C75.2523 18.9883 75.5695 18.7397 75.9751 18.5631C76.3873 18.3799 76.8484 18.2883 77.3587 18.2883C78.2941 18.2883 79.0563 18.5369 79.645 19.0341C79.73 19.106 79.7889 19.178 79.8216 19.25C79.8609 19.3154 79.8805 19.4004 79.8805 19.5051C79.8805 19.6425 79.838 19.7635 79.7529 19.8681C79.6744 19.9663 79.5796 20.0153 79.4684 20.0153C79.403 20.0153 79.3408 20.0055 79.2819 19.9859C79.2296 19.9663 79.1577 19.9303 79.0661 19.878C78.7979 19.6817 78.5362 19.5378 78.2811 19.4462C78.0325 19.3481 77.725 19.299 77.3587 19.299C76.9139 19.299 76.5606 19.3906 76.2989 19.5738C76.0438 19.7504 75.9163 19.999 75.9163 20.3195C75.9163 20.5877 76.0307 20.7938 76.2597 20.9377C76.4887 21.0816 76.8779 21.2157 77.4274 21.34C78.0096 21.4708 78.4806 21.618 78.8404 21.7816C79.2067 21.9386 79.4847 22.1414 79.6744 22.39C79.8707 22.6385 79.9688 22.9493 79.9688 23.3221C79.9688 23.7277 79.8543 24.0875 79.6254 24.4015C79.403 24.709 79.0857 24.951 78.6736 25.1276C78.268 25.2977 77.8003 25.3828 77.2704 25.3828ZM84.6073 25.3828C83.9335 25.3828 83.348 25.2389 82.8509 24.951C82.3602 24.6632 81.9808 24.2511 81.7126 23.7146C81.4444 23.1782 81.3103 22.5502 81.3103 21.8306C81.3103 21.1111 81.4411 20.4863 81.7028 19.9565C81.971 19.42 82.3537 19.0079 82.8509 18.7201C83.348 18.4322 83.9335 18.2883 84.6073 18.2883C85.2811 18.2883 85.8633 18.4322 86.3539 18.7201C86.8511 19.0079 87.2305 19.42 87.4922 19.9565C87.7604 20.4863 87.8945 21.1111 87.8945 21.8306C87.8945 22.5502 87.7604 23.1782 87.4922 23.7146C87.224 24.2511 86.8413 24.6632 86.3441 24.951C85.8535 25.2389 85.2745 25.3828 84.6073 25.3828ZM84.6073 24.3721C85.2418 24.3721 85.7357 24.1529 86.089 23.7146C86.4488 23.2763 86.6287 22.6483 86.6287 21.8306C86.6287 21.0129 86.4488 20.3882 86.089 19.9565C85.7357 19.5182 85.2418 19.299 84.6073 19.299C83.9662 19.299 83.4658 19.5182 83.106 19.9565C82.7527 20.3882 82.5761 21.0129 82.5761 21.8306C82.5761 22.6483 82.7527 23.2763 83.106 23.7146C83.4658 24.1529 83.9662 24.3721 84.6073 24.3721ZM90.1934 25.3533C90.0037 25.3533 89.85 25.2945 89.7323 25.1767C89.621 25.059 89.5654 24.9052 89.5654 24.7155V18.9752C89.5654 18.7855 89.6178 18.6383 89.7224 18.5336C89.8337 18.429 89.9841 18.3766 90.1738 18.3766H93.618C94.017 18.3766 94.2166 18.5467 94.2166 18.8869C94.2166 19.2205 94.017 19.3873 93.618 19.3873H90.8116V21.2713H93.4218C93.8208 21.2713 94.0203 21.4414 94.0203 21.7816C94.0203 22.1152 93.8208 22.282 93.4218 22.282H90.8116V24.7155C90.8116 24.9052 90.756 25.059 90.6448 25.1767C90.5336 25.2945 90.3832 25.3533 90.1934 25.3533ZM97.8976 25.3435C97.7013 25.3435 97.5443 25.2879 97.4266 25.1767C97.3154 25.059 97.2598 24.9052 97.2598 24.7155V19.4168H95.4739C95.0814 19.4168 94.8851 19.2434 94.8851 18.8967C94.8851 18.55 95.0814 18.3766 95.4739 18.3766H100.311C100.704 18.3766 100.9 18.55 100.9 18.8967C100.9 19.2434 100.704 19.4168 100.311 19.4168H98.5256V24.7155C98.5256 24.9052 98.4667 25.059 98.3489 25.1767C98.2377 25.2879 98.0873 25.3435 97.8976 25.3435ZM104.72 25.3828C104.053 25.3828 103.467 25.2389 102.964 24.951C102.466 24.6632 102.084 24.2511 101.816 23.7146C101.547 23.1782 101.413 22.5502 101.413 21.8306C101.413 21.1111 101.547 20.4863 101.816 19.9565C102.084 19.42 102.466 19.0079 102.964 18.7201C103.467 18.4322 104.053 18.2883 104.72 18.2883C105.152 18.2883 105.557 18.3537 105.937 18.4846C106.316 18.6089 106.653 18.792 106.948 19.0341C107.033 19.0995 107.091 19.1682 107.124 19.2401C107.157 19.3121 107.173 19.4004 107.173 19.5051C107.173 19.649 107.134 19.77 107.055 19.8681C106.977 19.9663 106.882 20.0153 106.771 20.0153C106.64 20.0153 106.506 19.9695 106.369 19.878C106.087 19.6686 105.826 19.5247 105.584 19.4462C105.342 19.3612 105.073 19.3186 104.779 19.3186C104.099 19.3186 103.582 19.5312 103.229 19.9565C102.882 20.3817 102.709 21.0064 102.709 21.8306C102.709 22.6614 102.882 23.2894 103.229 23.7146C103.582 24.1398 104.099 24.3525 104.779 24.3525C105.06 24.3525 105.319 24.3099 105.554 24.2249C105.796 24.1399 106.068 23.9959 106.369 23.7931C106.434 23.7539 106.499 23.7212 106.565 23.695C106.63 23.6689 106.699 23.6558 106.771 23.6558C106.882 23.6558 106.977 23.7048 107.055 23.803C107.134 23.9011 107.173 24.0221 107.173 24.166C107.173 24.2641 107.157 24.3525 107.124 24.431C107.091 24.5029 107.033 24.5716 106.948 24.637C106.653 24.8791 106.316 25.0655 105.937 25.1963C105.557 25.3206 105.152 25.3828 104.72 25.3828ZM109.28 25.2945C109.091 25.2945 108.94 25.2421 108.829 25.1375C108.724 25.0328 108.672 24.8856 108.672 24.6959V18.9752C108.672 18.7855 108.724 18.6383 108.829 18.5336C108.94 18.429 109.091 18.3766 109.28 18.3766H112.823C113.012 18.3766 113.159 18.4192 113.264 18.5042C113.369 18.5892 113.421 18.7103 113.421 18.8673C113.421 19.0308 113.369 19.1584 113.264 19.25C113.159 19.335 113.012 19.3775 112.823 19.3775H109.908V21.2811H112.626C112.816 21.2811 112.963 21.3237 113.068 21.4087C113.173 21.4937 113.225 21.618 113.225 21.7816C113.225 21.9386 113.173 22.0596 113.068 22.1446C112.963 22.2297 112.816 22.2722 112.626 22.2722H109.908V24.2936H112.823C113.012 24.2936 113.159 24.3394 113.264 24.431C113.369 24.516 113.421 24.6403 113.421 24.8038C113.421 24.9608 113.369 25.0819 113.264 25.1669C113.159 25.2519 113.012 25.2945 112.823 25.2945H109.28ZM120.083 18.3276C120.266 18.3276 120.41 18.3865 120.514 18.5042C120.625 18.6154 120.681 18.7659 120.681 18.9556V24.7155C120.681 24.9052 120.625 25.059 120.514 25.1767C120.403 25.2945 120.259 25.3533 120.083 25.3533C119.873 25.3533 119.713 25.2781 119.602 25.1276L116.02 20.4667V24.7155C116.02 24.9052 115.968 25.059 115.863 25.1767C115.758 25.2945 115.615 25.3533 115.431 25.3533C115.248 25.3533 115.104 25.2945 115 25.1767C114.895 25.059 114.843 24.9052 114.843 24.7155V18.9556C114.843 18.7659 114.898 18.6154 115.009 18.5042C115.121 18.3865 115.268 18.3276 115.451 18.3276C115.654 18.3276 115.811 18.4028 115.922 18.5533L119.494 23.1946V18.9556C119.494 18.7659 119.546 18.6154 119.651 18.5042C119.762 18.3865 119.906 18.3276 120.083 18.3276ZM124.832 25.3435C124.636 25.3435 124.479 25.2879 124.361 25.1767C124.25 25.059 124.195 24.9052 124.195 24.7155V19.4168H122.409C122.016 19.4168 121.82 19.2434 121.82 18.8967C121.82 18.55 122.016 18.3766 122.409 18.3766H127.246C127.639 18.3766 127.835 18.55 127.835 18.8967C127.835 19.2434 127.639 19.4168 127.246 19.4168H125.46V24.7155C125.46 24.9052 125.402 25.059 125.284 25.1767C125.173 25.2879 125.022 25.3435 124.832 25.3435ZM134.51 24.4996C134.589 24.6174 134.628 24.7319 134.628 24.8431C134.628 24.9935 134.566 25.1178 134.442 25.216C134.324 25.3141 134.183 25.3631 134.02 25.3631C133.915 25.3631 133.814 25.3402 133.716 25.2945C133.624 25.2421 133.546 25.1669 133.48 25.0688L132.175 23.0866C132.044 22.8773 131.904 22.7301 131.753 22.6451C131.609 22.56 131.419 22.5175 131.184 22.5175H130.222V24.7155C130.222 24.9118 130.167 25.0688 130.056 25.1865C129.944 25.2977 129.794 25.3533 129.604 25.3533C129.414 25.3533 129.261 25.2977 129.143 25.1865C129.032 25.0688 128.976 24.9118 128.976 24.7155V18.9752C128.976 18.7855 129.028 18.6383 129.133 18.5336C129.244 18.429 129.395 18.3766 129.585 18.3766H132.038C132.823 18.3766 133.418 18.5533 133.824 18.9065C134.236 19.2532 134.442 19.7569 134.442 20.4176C134.442 20.9541 134.288 21.3956 133.981 21.7423C133.68 22.0825 133.251 22.3016 132.695 22.3998C132.885 22.4456 133.052 22.5273 133.196 22.6451C133.339 22.7628 133.48 22.9264 133.617 23.1357L134.51 24.4996ZM131.861 21.5461C132.339 21.5461 132.689 21.4578 132.911 21.2811C133.133 21.098 133.245 20.82 133.245 20.4471C133.245 20.0677 133.133 19.7929 132.911 19.6228C132.689 19.4462 132.339 19.3579 131.861 19.3579H130.213V21.5461H131.861ZM136.8 25.2945C136.61 25.2945 136.46 25.2421 136.348 25.1375C136.244 25.0328 136.191 24.8856 136.191 24.6959V18.9752C136.191 18.7855 136.244 18.6383 136.348 18.5336C136.46 18.429 136.61 18.3766 136.8 18.3766H140.342C140.532 18.3766 140.679 18.4192 140.784 18.5042C140.888 18.5892 140.941 18.7103 140.941 18.8673C140.941 19.0308 140.888 19.1584 140.784 19.25C140.679 19.335 140.532 19.3775 140.342 19.3775H137.428V21.2811H140.146C140.336 21.2811 140.483 21.3237 140.587 21.4087C140.692 21.4937 140.744 21.618 140.744 21.7816C140.744 21.9386 140.692 22.0596 140.587 22.1446C140.483 22.2297 140.336 22.2722 140.146 22.2722H137.428V24.2936H140.342C140.532 24.2936 140.679 24.3394 140.784 24.431C140.888 24.516 140.941 24.6403 140.941 24.8038C140.941 24.9608 140.888 25.0819 140.784 25.1669C140.679 25.2519 140.532 25.2945 140.342 25.2945H136.8Z" fill="#EFEFEF"/>
</svg>
